# xmcd
#
# Track frame offsets: 
#        150
#        24994
#        47943
#        65054
#        82398
#        103288
#        122893
#        146978
#        189282
#        215797
#        257944
#        277233
#        296453
#
# Disc length: 4287 seconds
#
# Revision: 2
# Processed by: cddbd v1.5.1PL0 Copyright (c) Steve Scherf et al.
# Submitted via: ExactAudioCopy v0.95a5
#
DISCID=e210bd0d
DTITLE=古筝 - 高山流水－古筝
DYEAR=1900
DGENRE=民乐
TTITLE0=出水莲
TTITLE1=梅花三弄
TTITLE2=高山流水
TTITLE3=汉宫秋月
TTITLE4=闺中怨
TTITLE5=关山月
TTITLE6=林冲夜奔
TTITLE7=昭君出塞
TTITLE8=铁马吟
TTITLE9=春江花月夜
TTITLE10=渔舟唱晚
TTITLE11=苏武牧羊
TTITLE12=寒鸭戏水
EXTD=
EXTT0=
EXTT1=
EXTT2=
EXTT3=
EXTT4=
EXTT5=
EXTT6=
EXTT7=
EXTT8=
EXTT9=
EXTT10=
EXTT11=
EXTT12=
PLAYORDER=
